<svg xmlns="http://www.w3.org/2000/svg" width="184.395" height="55.516" viewBox="0 0 184.395 55.516"><defs><style>.a{fill:none;stroke:#50ade5;stroke-linecap:round;stroke-miterlimit:10;stroke-width:1.655px;}.b{fill:#50ade5;}.c{fill:#19212e;}</style></defs><g transform="translate(0)"><g transform="translate(0 0)"><path class="a" d="M5.5,23.032l2.952,2.954h5.315L20.5,32.725V46.513m19.57-24.044-2.952,2.952H34.592l-6.736,6.736V46.513m-17.1-34.541,3.436,3.436v2.148l4.189,4.187v5.582l3.97,3.975V46.513M37.439,11.972v3.973L26,27.381V46.513M25.3,5.8l2.363,2.363v5.365l-6.174,6.176v4.617l2.63,2.63V46.513m-2.838-28.68L18.005,14.55V9.4M8.126,19.7l3.287,3.285,2.03.223m7.514-7.965,2.575-2.578V9.922m-1.084,18.6-2.8-2.8M32.306,10.851v2.762l-2.381,2.381v5.449m-.02,3.975v2.116L28.042,29.4m-4.75-9.349,2.823,2.823v2.8M11.911,18.6l3.022,3.024v2.551l2.08,2.078" transform="translate(-2.415 -2.549)"/><path class="b" d="M52.58,15.012a.94.94,0,1,1,.942-.94.942.942,0,0,1-.942.94" transform="translate(-22.689 -5.77)"/><path class="b" d="M52.391,13.185a.7.7,0,1,1-.7.7.7.7,0,0,1,.7-.7m0-.482a1.18,1.18,0,1,0,1.183,1.18,1.182,1.182,0,0,0-1.183-1.18" transform="translate(-22.5 -5.581)"/><path class="b" d="M36.933,13.356a.94.94,0,1,1,.94-.94.939.939,0,0,1-.94.94" transform="translate(-15.815 -5.042)"/><path class="b" d="M36.743,11.529a.7.7,0,1,1-.7.7.7.7,0,0,1,.7-.7m0-.482a1.18,1.18,0,1,0,1.183,1.18,1.181,1.181,0,0,0-1.183-1.18" transform="translate(-15.625 -4.854)"/><path class="b" d="M27.072,12.416a.941.941,0,1,1,.937-.94.941.941,0,0,1-.937.94" transform="translate(-11.482 -4.629)"/><path class="b" d="M26.882,10.589a.7.7,0,1,1-.7.7.7.7,0,0,1,.7-.7m0-.484a1.182,1.182,0,1,0,1.178,1.183,1.183,1.183,0,0,0-1.178-1.183" transform="translate(-11.291 -4.44)"/><path class="b" d="M9.451,30.8a.94.94,0,1,1,.94-.94.939.939,0,0,1-.94.94" transform="translate(-3.74 -12.707)"/><path class="b" d="M9.262,28.976a.7.7,0,1,1-.7.7.7.7,0,0,1,.7-.7m0-.484a1.182,1.182,0,1,0,1.18,1.18,1.182,1.182,0,0,0-1.18-1.18" transform="translate(-3.551 -12.518)"/><path class="b" d="M16.2,28.84a.94.94,0,1,1,.94-.942.941.941,0,0,1-.94.942" transform="translate(-6.705 -11.846)"/><path class="b" d="M16.012,27.013a.7.7,0,1,1-.7.7.7.7,0,0,1,.7-.7m0-.482a1.18,1.18,0,1,0,1.18,1.18,1.181,1.181,0,0,0-1.18-1.18" transform="translate(-6.517 -11.657)"/><path class="c" d="M3.389,36.262a1.832,1.832,0,1,1,1.835-1.833,1.833,1.833,0,0,1-1.835,1.833" transform="translate(-0.685 -14.322)"/><path class="b" d="M3.026,32.7a1.37,1.37,0,1,1-1.367,1.369A1.37,1.37,0,0,1,3.026,32.7m0-.926a2.3,2.3,0,1,0,2.3,2.3,2.3,2.3,0,0,0-2.3-2.3" transform="translate(-0.321 -13.958)"/><path class="c" d="M13.442,17.3a1.833,1.833,0,1,1,1.833-1.833A1.834,1.834,0,0,1,13.442,17.3" transform="translate(-5.101 -5.991)"/><path class="b" d="M13.079,13.737a1.37,1.37,0,1,1-1.369,1.369,1.37,1.37,0,0,1,1.369-1.369m0-.929a2.3,2.3,0,1,0,2.3,2.3,2.3,2.3,0,0,0-2.3-2.3" transform="translate(-4.737 -5.628)"/><path class="c" d="M37.692,4.494a1.833,1.833,0,1,1,1.835-1.833,1.834,1.834,0,0,1-1.835,1.833" transform="translate(-15.755 -0.364)"/><path class="b" d="M37.329.926A1.371,1.371,0,1,1,35.96,2.3,1.372,1.372,0,0,1,37.329.926m0-.926a2.3,2.3,0,1,0,2.3,2.3,2.3,2.3,0,0,0-2.3-2.3" transform="translate(-15.391 0)"/><path class="c" d="M61.036,17.207a1.834,1.834,0,1,1,1.833-1.835,1.836,1.836,0,0,1-1.833,1.835" transform="translate(-26.011 -5.949)"/><path class="b" d="M60.672,13.64A1.37,1.37,0,1,1,59.3,15.008a1.37,1.37,0,0,1,1.369-1.369m0-.929a2.3,2.3,0,1,0,2.3,2.3,2.3,2.3,0,0,0-2.3-2.3" transform="translate(-25.648 -5.585)"/><path class="c" d="M65.509,35.787a1.833,1.833,0,1,1,1.835-1.835,1.836,1.836,0,0,1-1.835,1.835" transform="translate(-27.977 -14.113)"/><path class="b" d="M65.147,32.222a1.369,1.369,0,1,1-1.369,1.367,1.368,1.368,0,0,1,1.369-1.367m0-.929a2.3,2.3,0,1,0,2.3,2.3,2.3,2.3,0,0,0-2.3-2.3" transform="translate(-27.615 -13.749)"/><path class="b" d="M83.965,95.052a4.529,4.529,0,0,1-1.5.206c-1.842,0-2.961-.922-2.961-2.337,0-1.529,1.325-2.453,3.1-2.453a4.079,4.079,0,0,1,1.413.206l-.234.677a3.407,3.407,0,0,0-1.134-.182c-1.18,0-2.032.593-2.032,1.71,0,1.018.749,1.675,2.024,1.675a3.58,3.58,0,0,0,1.154-.173l.173.67Zm0,0" transform="translate(-34.931 -39.749)"/><path class="b" d="M95.734,92.819c0,1.559-1.178,2.446-2.779,2.446a2.4,2.4,0,0,1-2.67-2.365,2.491,2.491,0,0,1,2.755-2.431,2.4,2.4,0,0,1,2.694,2.35m-4.327.068a1.609,1.609,0,1,0,1.61-1.739,1.573,1.573,0,0,0-1.61,1.739" transform="translate(-39.668 -39.749)"/><path class="b" d="M103.785,95.247V90.6h1.207l1.5,1.993a12,12,0,0,1,.99,1.557h.018a17.224,17.224,0,0,1-.094-1.929V90.6h.981v4.645h-1.093l-1.515-2.039a14.8,14.8,0,0,1-1.04-1.605l-.026.007c.039.6.05,1.213.05,1.978v1.66Zm0,0" transform="translate(-45.599 -39.807)"/><path class="b" d="M116.32,95.247V90.6h1.209l1.5,1.993a12.242,12.242,0,0,1,.99,1.557h.015a17.222,17.222,0,0,1-.094-1.929V90.6h.981v4.645h-1.093l-1.515-2.039a15.486,15.486,0,0,1-1.04-1.605l-.026.007c.044.6.053,1.213.053,1.978v1.66Zm0,0" transform="translate(-51.107 -39.807)"/><path class="b" d="M128.855,90.6v4.645h3.5v-.694h-2.446V93.186H132.1V92.5h-2.188V91.3h2.317v-.7Zm0,0" transform="translate(-56.614 -39.807)"/><path class="b" d="M142.838,95.052a4.493,4.493,0,0,1-1.5.206c-1.842,0-2.961-.922-2.961-2.337,0-1.529,1.325-2.453,3.1-2.453a4.084,4.084,0,0,1,1.415.206l-.234.677a3.422,3.422,0,0,0-1.137-.182c-1.18,0-2.03.593-2.03,1.71,0,1.018.747,1.675,2.021,1.675a3.561,3.561,0,0,0,1.154-.173l.171.67Zm0,0" transform="translate(-60.798 -39.749)"/><path class="b" d="M149.438,90.6v.712h1.653v3.933h1.058V91.313h1.673V90.6Zm0,0" transform="translate(-65.657 -39.807)"/><path class="b" d="M165.1,92.819c0,1.559-1.178,2.446-2.781,2.446a2.4,2.4,0,0,1-2.67-2.365,2.49,2.49,0,0,1,2.755-2.431,2.4,2.4,0,0,1,2.7,2.35m-4.332.068a1.61,1.61,0,1,0,1.61-1.739,1.575,1.575,0,0,0-1.61,1.739" transform="translate(-70.145 -39.749)"/><path class="b" d="M173.152,95.247V90.6h1.209l1.5,1.993a12.028,12.028,0,0,1,.992,1.557h.015a17.25,17.25,0,0,1-.092-1.929V90.6h.981v4.645h-1.095l-1.515-2.039A15.51,15.51,0,0,1,174.1,91.6l-.024.007c.042.6.048,1.213.048,1.978v1.66Zm0,0" transform="translate(-76.076 -39.807)"/><path class="b" d="M185.461,94.264a3.494,3.494,0,0,0,1.4.3c.681,0,1.058-.254,1.058-.631,0-.353-.291-.558-1.029-.773-.957-.276-1.57-.683-1.57-1.351,0-.758.795-1.336,2.05-1.336a3.717,3.717,0,0,1,1.4.234l-.261.681a2.953,2.953,0,0,0-1.154-.219c-.67,0-.961.289-.961.558,0,.357.333.523,1.108.764,1.007.3,1.5.71,1.5,1.378,0,.745-.707,1.393-2.205,1.393a4.148,4.148,0,0,1-1.566-.291l.23-.7Zm0,0" transform="translate(-81.383 -39.749)"/><path class="b" d="M201.141,95.247V90.6h1.2l1.5,1.993a11.75,11.75,0,0,1,.988,1.557h.018a17.243,17.243,0,0,1-.092-1.929V90.6h.979v4.645h-1.091l-1.515-2.039a15.533,15.533,0,0,1-1.045-1.605l-.024.007c.044.6.053,1.213.053,1.978v1.66Zm0,0" transform="translate(-88.374 -39.807)"/><path class="b" d="M218.589,92.819c0,1.559-1.18,2.446-2.781,2.446A2.4,2.4,0,0,1,213.14,92.9a2.489,2.489,0,0,1,2.753-2.431,2.4,2.4,0,0,1,2.7,2.35m-4.33.068a1.609,1.609,0,1,0,1.61-1.739,1.572,1.572,0,0,0-1.61,1.739" transform="translate(-93.646 -39.749)"/><path class="b" d="M226.41,94.264a3.5,3.5,0,0,0,1.408.3c.677,0,1.056-.254,1.056-.631,0-.353-.293-.558-1.031-.773-.957-.276-1.568-.683-1.568-1.351,0-.758.791-1.336,2.048-1.336a3.7,3.7,0,0,1,1.4.234l-.256.681a2.968,2.968,0,0,0-1.152-.219c-.675,0-.968.289-.968.558,0,.357.335.523,1.11.764,1.01.3,1.5.71,1.5,1.378,0,.745-.707,1.393-2.205,1.393a4.148,4.148,0,0,1-1.566-.291Zm0,0" transform="translate(-99.375 -39.749)"/><path class="b" d="M240.508,90.6v.712h1.656v3.933h1.058V91.313h1.671V90.6Zm0,0" transform="translate(-105.67 -39.807)"/><path class="b" d="M251.4,93.93l-.5,1.316h-1.1l1.861-4.645h1.353l1.886,4.645h-1.139l-.523-1.316H251.4Zm1.662-.639-.458-1.145c-.114-.283-.206-.6-.291-.869h-.018c-.09.272-.175.593-.276.869l-.447,1.145h1.489Zm0,0" transform="translate(-109.753 -39.807)"/><path class="b" d="M262.488,90.6v4.645h3.445v-.71H263.55V90.6h-1.062Zm0,0" transform="translate(-115.327 -39.807)"/><path class="b" d="M272.211,90.6v4.645h3.506v-.694h-2.442V93.186h2.183V92.5h-2.183V91.3h2.313v-.7Zm0,0" transform="translate(-119.599 -39.807)"/><path class="b" d="M282.277,95.247V90.6h1.2l1.5,1.993a12.028,12.028,0,0,1,.992,1.557h.018a17.179,17.179,0,0,1-.1-1.929V90.6h.985v4.645h-1.095l-1.513-2.039a15.54,15.54,0,0,1-1.045-1.605l-.024.007c.044.6.053,1.213.053,1.978v1.66Zm0,0" transform="translate(-124.022 -39.807)"/><path class="b" d="M293.84,90.6v.712H295.5v3.933h1.058V91.313h1.671V90.6Zm0,0" transform="translate(-129.102 -39.807)"/><path class="b" d="M304.671,94.264a3.486,3.486,0,0,0,1.4.3c.679,0,1.058-.254,1.058-.631,0-.353-.291-.558-1.034-.773-.957-.276-1.566-.683-1.566-1.351,0-.758.791-1.336,2.048-1.336a3.7,3.7,0,0,1,1.4.234l-.256.681a2.962,2.962,0,0,0-1.154-.219c-.672,0-.966.289-.966.558,0,.357.337.523,1.113.764,1.007.3,1.5.71,1.5,1.378,0,.745-.705,1.393-2.205,1.393a4.179,4.179,0,0,1-1.568-.291Zm0,0" transform="translate(-133.758 -39.749)"/><path class="c" d="M116.6,25.547l-3.546.033a4.364,4.364,0,0,1,.484-.933,2.186,2.186,0,0,1,.287-.572c.239-.71.3-1.113.066-1.386a.765.765,0,0,0-.815-.166c-1.106.405-1.421,1.857-1.905,2.4a2.4,2.4,0,0,1-1.18.629H108.26c-.447.265-.232.2-.495.6l-.155.574c-.05.372-.12.609-.129.677-.046.3-.088.37.015.572a11.723,11.723,0,0,0,1.627.309l-.624,1.084a21.157,21.157,0,0,1-3.263,3.984L103.543,35c-.223.21-.922.729-1.126.907a3.453,3.453,0,0,1-.769.405c-.449.066-.832.123-1.018-.212-.361-.51.018-1.476.092-1.98a1.881,1.881,0,0,0-.044-.841c.046-.307.088-.607-.155-.78-.112.011-.1-.066-.077-.083.283-.217.812-.707.834-.937.171-1.64-.71-1.77-.883-1.934a1.435,1.435,0,0,0-1.739-.3l-1.117.458c-.589.418-.637.261-1.277.7-.41.269-.823.482-1.237.786-.563.372-.972.784-1.612,1.3l-.591.46c-.162.173-.721.745-.913.913L90.885,34.88a2.091,2.091,0,0,0-.427.473l-1.686,1.537-1.215.753a9.36,9.36,0,0,1-3.351,1.286,4.175,4.175,0,0,1-2.041-.066,3.782,3.782,0,0,1-1.169-.751,3.347,3.347,0,0,1-.666-1.023c-.026-.094-.077-.081-.077-.184a2.4,2.4,0,0,0-.072-.35s-.114-.453-.112-.51l-.061-.2c-.035-.287-.053-1.007-.053-1.007L80,34.547a11.875,11.875,0,0,1,.644-4.2,20.032,20.032,0,0,1,1.036-2.453c.431-.788,2.709-4.77,5.534-5.56,1.6-.416,2.35-.569,3.447.256.466.35.486.484.392,1a1.4,1.4,0,0,1-.252.541l0,0,0,0c-.123.127-.193.21-.245.274a1.125,1.125,0,0,1-.431.324l-.011.007-.009.009a2.87,2.87,0,0,0-.532.918c-.046.112-.092.232-.155.361-.081.16-.149.276-.212.392a3.659,3.659,0,0,0-.423.992s-.247.276-.25.283a6.3,6.3,0,0,0-.339,1.437c-.037.256-.079.545-.164.942l-.011.053.046.031a1.625,1.625,0,0,0,.692.184h.013l.013,0,.609-.158a1.914,1.914,0,0,0,1.312-.76,12.8,12.8,0,0,0,2.77-8.031c.02-1.119-.587-1.373-1.428-1.719-1.48-.615-4.183.028-6.425,1.432a21.129,21.129,0,0,0-6.92,6.87c-.247.464-.92,1.921-1.145,2.462a10.955,10.955,0,0,0-.8,2.992c-.683,2.3-.313,5.339,1.531,6.708,1.925,1.38,5.149.948,7.2.131a14.33,14.33,0,0,0,3.364-1.9l.013-.009c.53-.394.876-.653,1.119-.878a1.96,1.96,0,0,0,.011.267l-.061.451c-.241.629.031.721.239,1.172.166.337-.022.331.442.541l.7.18c1.373.026,3.651-2.015,5.068-3.162l1.349-1.15.247.173a4.659,4.659,0,0,0-.066,1.347,1.884,1.884,0,0,0,1.264,1.485c.839.272,1.688,0,2.816-.775a28.264,28.264,0,0,0,4.485-3.806,3.522,3.522,0,0,1,.712-.712c.105.2.013.173-.118.377a6.919,6.919,0,0,0-.377.872l-.449,1.215c-.226.607-1.222,3.7-.907,4.306.177.372.416.2.655.407l.585.405a17.42,17.42,0,0,0,3.165-2.015l.563-.37c2.56-2.056,1.848-1.113,2.326-3.44l-.182-.136-1.053.742a5.312,5.312,0,0,0-.924.777l-.749.258a5.954,5.954,0,0,1-1.04.639l-.206-.2a11.947,11.947,0,0,1,.618-1.879l.088-.6.5-1.52.32-.81a2.165,2.165,0,0,0,.37-.909l1.5-3.307H111.8a.934.934,0,0,1,.1-.009l.274-.177,3.062.066a6.43,6.43,0,0,0,1.113-.237c.337-.2.324-.195.418-.834a3.927,3.927,0,0,1,.125-.607l.09-.609-.39-.335Zm-19.561,8.8-2.84,2.085c-.626.372-.607.451-.959.475l-.182-.077.055-.436.258-.416a5.04,5.04,0,0,1,1.167-1.325,9.735,9.735,0,0,1,1.286-1.169c.033,0,1.246-.933,1.367-1.069a11.187,11.187,0,0,1,1.671-.843c.247-.009.7.215.832.979-.924.247-1.3.828-2.654,1.8" transform="translate(-33.577 -8.539)"/><path class="c" d="M153.065,42.152c.081.134.339.909.206,1.11a1.378,1.378,0,0,1-.828,1.047,8.844,8.844,0,0,1-2.321-.033l-.261.169s-2.488-.07-2.621-.07h-.911a.84.84,0,0,1-.672-.234l.037-.272c.09-.134.083-.1.208-.269l.118-.1.057-.166c.208-.269.116-.1.5-.438a1.058,1.058,0,0,0,.243-.506.9.9,0,0,1,.609-.234c.272,0,.666.064,1.036.064.035,0,1.021-.064,1.121-.064Zm0,0" transform="translate(-63.996 -18.52)"/><path class="c" d="M286.523,25.822c.171.817-.975,2.8-2.589,3.443a2.3,2.3,0,0,1-1.559.07,1.92,1.92,0,0,1,.237-2.094,3.151,3.151,0,0,1,.646-.707,11.526,11.526,0,0,1,1.1-.81.872.872,0,0,1,.377-.267,4.3,4.3,0,0,1,.782-.274c.423-.134.839-.18,1.01.639" transform="translate(-123.977 -11.031)"/><path class="c" d="M246.428,35.736a3.588,3.588,0,0,1-1.1.631.969.969,0,0,1-.946-.129,6.571,6.571,0,0,1-.716-3.094,1.157,1.157,0,0,0-.986-.508,3.012,3.012,0,0,0,.808-.968,1.426,1.426,0,0,0-.532-1.925,2.483,2.483,0,0,0-1.726-.252,7.671,7.671,0,0,0-1.036.3c-.405.28-.48.07-1,.449-.4.276-.795.558-1.2.869a16.885,16.885,0,0,0-1.662,1.3l-.62.558c-.147.166-.515.561-.705.729l-.791,1.071c-.3.232-.742.539-.972.725a3.6,3.6,0,0,1-1.2.607c-.626.158-1.082.125-1.209-1.163-.1-1.11-.057-2.783-.088-2.882a1.514,1.514,0,0,0-1.384-.817,2.434,2.434,0,0,0-.565.177l-1.117,1.045c-.272.269-.563.675-.677.773l-.911.911a5.4,5.4,0,0,1-1.047,1,.837.837,0,0,0-.07.059.377.377,0,0,0-.046.037c-.015.013-.028.028-.042.042a1.205,1.205,0,0,1-1.021.447c-.607-.234-.714-1.787-.887-2.225-.322-1.012-.569-1.384-1.375-1.417-1.077-.033-1.816.642-3.051,1.724a1.286,1.286,0,0,1-.418.3c-.155.138-1.356,1.183-1.763,1.653-.307.269-.508.62-.624.572a.818.818,0,0,1,.149-.539l.775-1.618c.532-1.316,1.632-3.033,1.2-3.977a1.123,1.123,0,0,0-.913-.71,5.284,5.284,0,0,0-2.757,1.667c-.381.372-.751.736-1.1,1.042l-.394.4c-.749.795-1.419,1.342-1.763,1.741A9.937,9.937,0,0,1,209.1,36c-.495.243-.69.138-.567-.692.064-.442.287-.959.346-1.29.083-.464.237-1.537-.191-1.572-.114.011-.223.024-.324.037.245-.322.359-.447.515-.685a1.647,1.647,0,0,0-.42-2.144,2.505,2.505,0,0,0-2.085-.107,13.491,13.491,0,0,0-2.17.959c-.427.272-1.023.668-1.294.841-.2.127-1.148.876-1.524,1.152l-.723.585c-.169.171-.589.561-.795.727l-.8.8a5.049,5.049,0,0,1-2,1.233c-.383.068-.615-.234-.793-.646-.315-.714-.4-2.659-1.522-2.858-1.025-.2-4.034,2.387-4.43,2.792l.1-.705.46-1.277c.033-.237.129-.436.162-.67.094-.2.085-.37.184-.572a10.1,10.1,0,0,0,.291-1.312,1.331,1.331,0,0,0-.05-.6c-.081-.368-.09-.3-.331-.532-1.091-.166-2.407,1.2-3.846,2.477,0,0-1.759,1.428-2.034,1.708a3.894,3.894,0,0,1-.81.666c-.276.151.151-.874.239-1.01l.158-.609a2.222,2.222,0,0,0-.066-1.618,1.848,1.848,0,0,0-1.121-.9c-.966-.289-1.857-.085-3.616.145-.609-.112-1.688.307-1.638-.064-.048-.2.114-.563.138-.76l.1-.756c.037-.265.11-.528.151-.791l.064-.495a1.709,1.709,0,0,0,.059-.46l.206-2.192a4.5,4.5,0,0,0-.186-2.319,2.168,2.168,0,0,0-1.1-.867c-.318-.191-.339-.169-.646-.366-.239-.131-.134-.068-.333-.267a1.084,1.084,0,0,1-.355-.324l.677-1.465c-.173-.331-.832-.368-1.086-.405-.563.329-.368.261-.924.554-.41.247-.429.258-.874.552a2.674,2.674,0,0,0-.523.311l-.25.1c-.118.061-.9.228-.942.263-.646.359-.495.727-.6,1.093l.267.337a12.137,12.137,0,0,0-2.153,2.978l-1.765,3.018a4.034,4.034,0,0,1-.318.519l-.377.854c-.048.064-.883,1.2-1.047,1.487a2.181,2.181,0,0,1-.4.784,3.4,3.4,0,0,1-.929.263c-1.9.661-1.759,1.222-2.017,2.523a.246.246,0,0,0,.18.247l1.187-.2-.46,1.049-.385.685-1.143,2.328a4.056,4.056,0,0,0-.366,1.588,1.329,1.329,0,0,0,1.01.074.993.993,0,0,0,.512-.18c.219-.188.23-.254.405-.414l.445-.817.09-.1.061-.129s.149-.335.425-.823l.517-1.012a19.575,19.575,0,0,0,1.491-2.571c.742-.1,3.565-.532,4.036-.6l.8-.188c.105-.031,1.461-.217,3.208-.436-.037.469-.267,1.756-.3,1.975l-.55,4.047c-.026.164-.158.364-.107.495l-.219,1.373c-.026.195-.053.657.145.826a1.693,1.693,0,0,0,.867-.39,2.577,2.577,0,0,0,.679-.657,7.333,7.333,0,0,1,.315-.975,2.913,2.913,0,0,0,.239-.69,2.667,2.667,0,0,1,.237-.657,9.347,9.347,0,0,0,.339-1.382l.278-.723.848-3.484a.458.458,0,0,1,.02-.09c.4-.072,1.555-.226,1.555-.226a7.207,7.207,0,0,1,2.271-.208c.758.328-.591,2.928-.591,2.928l.024-.018-.3.707-.322.841c-.151.3-1.253,2.56-1.095,2.856.048.136.3.269.639.267.749,0,2.788-2.17,3.261-2.608l1.9-1.8a11.707,11.707,0,0,1,1.248-1.007,2.744,2.744,0,0,1,1.134-.609l.177.2a21.348,21.348,0,0,1-.607,2.085l-.429,1.108a1.28,1.28,0,0,0-.184.445l-.749,2.162s-.022.473.374.569,1.233-.484,1.921-1.163l.929-.959c1.57-1.489,2.153-2.735,3.289-2.6.552.042.839.88,1.388,1.649.234.324.543,1.165,1.507,1.165A3.439,3.439,0,0,0,196.9,37.8c.368-.206.672-.4.926-.572a2.741,2.741,0,0,0-.013.506,3.474,3.474,0,0,0,.145,1.3c.162.324.267.425.736.62l.707.164c1.406,0,3.482-1.844,4.956-2.987,0,0,.97-.751,1.286-1.012s.241.162.241.162a4.782,4.782,0,0,0-.094,1.318,1.742,1.742,0,0,0,1.386,1.3c.85.25,1.54-.1,2.707-.878a15,15,0,0,0,1.6-1.572c.035-.031.074-.059.109-.094.223-.188.834-.85,1.5-1.465.6-.554.845-.705.981-.705,0,0,.044.044-.1.449s-.158.552-.261.791a1.006,1.006,0,0,0-.169.471l-.344.707a12.858,12.858,0,0,0-1.375,4.319,1.071,1.071,0,0,0,.677.2l.587-.066c.74-.239.677-.506,1.255-.981a15.4,15.4,0,0,0,1.334-1.246c.372-.269,3.664-3.18,3.916-3.237.427-.169.659.337.688.574a7.288,7.288,0,0,1,.839,1.415c.368.707.639.911,1.1,1.014a2.435,2.435,0,0,0,2.153-.751,9.972,9.972,0,0,0,.832-.7,5.271,5.271,0,0,0,.854-.745c.048-.068,1.119-1.047,1.154-1.047.563-.32.477.2.637.471a16.526,16.526,0,0,0,.377,1.614,3.839,3.839,0,0,0,.359.773,1.441,1.441,0,0,0,.968.718c.953.293,2.4-.506,3.841-1.623a2.2,2.2,0,0,0,.35,2.032c.105.125.035.263.558.427l.764.116c1.48-.066,3.7-2.131,5.1-3.3l.25-.28c.486-.32.5,0,.655.447a10.446,10.446,0,0,0,.5,1.305,1.6,1.6,0,0,0,.339.515,1.825,1.825,0,0,0,1.051.7c1.194.162,3.173-1.292,4.932-2.812l.164-1.59a6.838,6.838,0,0,0-1.636,1.167m-70.456-9.1-.116.856a1.772,1.772,0,0,0-.011.626l-.153,1.117c-.033.265-.142,1.6-.142,1.6-.112,0-1.888.223-2,.219l-1.491.177c-.289,0-2.554.243-2.554.243l-.145,0-.116.026-.147-.007-.175,0,.287-.593a3.084,3.084,0,0,0,.353-.519c.35-.32,2.035-3.121,2.387-3.451a6.467,6.467,0,0,0,.438-.6c.1-.131.182-.2.278-.328l.066-.166.142-.166a1.461,1.461,0,0,0,.348-.694,9.07,9.07,0,0,1,1.075-1.062c1.307.782,1.566.992,1.7,2.131-.013.1,0,.434-.026.6M206.465,33.1c-.357.287-.736.639-1.426,1.119l-.946.718L202.2,36.215c-.635.364-.574.519-1.113.528l-.077-.147.035-.212.226-.377a10.407,10.407,0,0,1,1.165-1.441,9.173,9.173,0,0,1,1.215-1.088c.037,0,1.143-.894,1.371-1.036a4.166,4.166,0,0,1,1.2-.561c.388-.105.569.436.241,1.215m35.329-.416-1.165,1.014c-.015.013-.024.028-.039.039-.1.081-.219.171-.346.267l-.644.635-1.853,1.459c-.62.388-.464.436-1.027.473a.126.126,0,0,1-.116-.145c-.024-.423.83-1.553,1.106-1.914a16.31,16.31,0,0,1,2.481-2.308s.127-.188.839-.414c.309-.1,1.021.293,1.246.867-.153,0-.318.009-.482.026" transform="translate(-71.286 -8.253)"/><path class="c" d="M0,79.427c7.391-1.879,49.22-6.3,68.352-7.1,59.4-2.483,83.412-3.76,112.66-3.344,1.789.048,5.361-1.448,1.984-1.537-32.443-.848-64.911-1.24-97.358-.405-21.825.561-43.7,1.632-65.389,4.266q-7.184.871-14.323,2.054a6.573,6.573,0,0,0-2.654.9c-2.249,1.4-2.251,2.324-2.251,2.324L0,79.427Zm0,0" transform="translate(0 -29.252)"/></g></g></svg>